<svg xmlns="http://www.w3.org/2000/svg" viewBox="0 0 124 96" role="img" aria-hidden="true">
  <g fill="none" fill-rule="evenodd">
    <path fill="#F7E6B7" d="M61.8 6c10.5 9.4 16 21.1 16 34.6 0 9.6-3 18.3-9 26.2-5.4-7.5-8.2-16.2-8.2-26.2C60.6 27 61 15.4 61.8 6Z"/>
    <path fill="#F7E6B7" d="M41.7 20.5c9.4 3 16.5 8 21.5 15.1 3.8 5.4 5.8 11.5 6.1 18.2-7.5-1.1-14.1-4-19.7-8.7-7.6-6.4-10.2-14.6-7.9-24.6Z"/>
    <path fill="#F7E6B7" d="M82.4 20.5c-2.3 10-.2 18.2 6.5 24.6 4.8 4.6 10.9 7.5 18.2 8.7.2-6.6-1.5-12.7-5.1-18.2-4.7-7.2-11.3-12.2-19.6-15.1Z"/>
    <path fill="#DDE9A4" d="M25 48.6c10.3.6 18.8 3.7 25.4 9.2 5.2 4.3 8.8 9.8 10.8 16.4-8-.3-15.4-2.4-22.2-6.5C29.5 62 24.9 55.6 25 48.6Z"/>
    <path fill="#DDE9A4" d="M99 48.6c.2 7-4 13.4-12.5 19.1-6.2 4.1-13.1 6.2-20.8 6.5 2-6.6 5.3-12 10.1-16.4 6.1-5.5 13.9-8.6 23.2-9.2Z"/>
    <path stroke="#6B8E67" stroke-linecap="round" stroke-linejoin="round" stroke-width="4.2" d="M62.4 44.7v37.4"/>
    <path stroke="#6B8E67" stroke-linecap="round" stroke-linejoin="round" stroke-width="4.2" d="M62.4 61.6 43.7 82.1M62.4 57.5l-29 24.6M62.4 61.6 81 82.1M62.4 57.5l29 24.6"/>
    <path fill="#DDE9A4" d="M16 79.7c12.7-3.1 25.5-2.9 38.4.7-9.3 8.4-21.8 11.4-37.4 8.9L16 79.7Z"/>
    <path fill="#DDE9A4" d="M108.2 79.7c-12.7-3.1-25.5-2.9-38.4.7 9.3 8.4 21.8 11.4 37.4 8.9l1-9.6Z"/>
  </g>
</svg>
